<svg width="275" height="48" viewBox="0 0 275 48" fill="none" xmlns="http://www.w3.org/2000/svg"><rect width="275" height="48" rx="4" fill="#35BBF4"/><path fill-rule="evenodd" clip-rule="evenodd" d="M35 14C32.7909 14 31 15.7909 31 18V29C31 31.2091 32.7909 33 35 33H64C66.2091 33 68 31.2091 68 29V18C68 15.7909 66.2091 14 64 14H35ZM35.8019 18.36V28.952C36.4099 29.032 37.3059 29.112 38.5699 29.112C40.6819 29.112 42.4099 28.664 43.5459 27.72C44.5859 26.84 45.3379 25.416 45.3379 23.352C45.3379 21.448 44.6339 20.12 43.5139 19.288C42.4739 18.504 41.1459 18.136 39.0979 18.136C37.8659 18.136 36.6979 18.216 35.8019 18.36ZM38.2499 27.16V20.104C38.4579 20.056 38.8099 20.008 39.3539 20.008C41.4499 20.008 42.7619 21.192 42.7459 23.432C42.7459 26.008 41.3059 27.224 39.0979 27.208C38.7939 27.208 38.4579 27.208 38.2499 27.16ZM49.0446 26.232H52.1326L52.9646 29H55.5886L52.2446 18.216H49.0446L45.7486 29H48.2766L49.0446 26.232ZM51.7806 24.408H49.3966L50.0366 22.12C50.142 21.7461 50.2417 21.3034 50.3391 20.8708C50.4043 20.5814 50.4684 20.2966 50.5326 20.04H50.5646C50.5905 20.1439 50.6173 20.2519 50.6449 20.3629C50.7869 20.9354 50.9477 21.5839 51.1086 22.12L51.7806 24.408ZM56.8726 18.216V29H59.3206V24.664H63.1926V22.68H59.3206V20.216H63.4646V18.216H56.8726Z" fill="white"/><path d="M71.854 30.772V23.45C71.854 22.554 71.826 21.784 71.798 21.154H73.646L73.744 22.106H73.772C74.276 21.378 75.06 21 76.054 21C77.552 21 78.896 22.302 78.896 24.486C78.896 26.978 77.314 28.154 75.788 28.154C74.962 28.154 74.318 27.818 74.01 27.37H73.982V30.772H71.854ZM73.982 24.122V25.06C73.982 25.228 73.996 25.382 74.024 25.508C74.164 26.082 74.654 26.516 75.27 26.516C76.194 26.516 76.74 25.746 76.74 24.584C76.74 23.492 76.25 22.666 75.298 22.666C74.696 22.666 74.164 23.114 74.024 23.744C73.996 23.856 73.982 23.996 73.982 24.122ZM85.8912 28H83.9732L83.8472 27.314H83.8052C83.3572 27.86 82.6572 28.154 81.8452 28.154C80.4592 28.154 79.6332 27.146 79.6332 26.054C79.6332 24.276 81.2292 23.422 83.6512 23.436V23.338C83.6512 22.974 83.4552 22.456 82.4052 22.456C81.7052 22.456 80.9632 22.694 80.5152 22.974L80.1232 21.602C80.5992 21.336 81.5372 21 82.7832 21C85.0652 21 85.7932 22.344 85.7932 23.954V26.334C85.7932 26.992 85.8212 27.622 85.8912 28ZM83.7212 25.508V24.766C82.6012 24.752 81.7332 25.018 81.7332 25.844C81.7332 26.39 82.0972 26.656 82.5732 26.656C83.1052 26.656 83.5392 26.306 83.6792 25.872C83.7072 25.76 83.7212 25.634 83.7212 25.508ZM86.4036 21.154H88.7696L89.7916 24.514C89.9036 24.92 90.0436 25.424 90.1276 25.788H90.1696C90.2676 25.424 90.3796 24.906 90.4776 24.514L91.3176 21.154H93.5996L92.0036 25.662C91.0236 28.378 90.3656 29.47 89.5956 30.156C88.8536 30.8 88.0696 31.024 87.5376 31.094L87.0896 29.288C87.3556 29.246 87.6916 29.12 88.0136 28.924C88.3356 28.756 88.6856 28.42 88.8956 28.07C88.9656 27.972 89.0076 27.86 89.0076 27.762C89.0076 27.692 88.9936 27.58 88.9096 27.412L86.4036 21.154Z" fill="white"/><path d="M115.297 29V19.2H118.503C119.94 19.2 121.135 19.6247 122.087 20.474C123.048 21.3233 123.529 22.532 123.529 24.1C123.529 25.668 123.048 26.8767 122.087 27.726C121.135 28.5753 119.94 29 118.503 29H115.297ZM117.173 27.348H118.335C119.268 27.348 120.043 27.0867 120.659 26.564C121.284 26.0413 121.597 25.22 121.597 24.1C121.597 22.98 121.284 22.1587 120.659 21.636C120.043 21.104 119.268 20.838 118.335 20.838H117.173V27.348ZM130.689 28.09C129.998 28.7713 129.116 29.112 128.043 29.112C126.97 29.112 126.088 28.7713 125.397 28.09C124.706 27.3993 124.361 26.5267 124.361 25.472C124.361 24.4173 124.706 23.5493 125.397 22.868C126.088 22.1773 126.97 21.832 128.043 21.832C129.116 21.832 129.998 22.1773 130.689 22.868C131.38 23.5493 131.725 24.4173 131.725 25.472C131.725 26.5267 131.38 27.3993 130.689 28.09ZM126.657 27.012C127.012 27.3947 127.474 27.586 128.043 27.586C128.612 27.586 129.07 27.39 129.415 26.998C129.77 26.606 129.947 26.0973 129.947 25.472C129.947 24.8467 129.77 24.338 129.415 23.946C129.07 23.554 128.612 23.358 128.043 23.358C127.474 23.358 127.012 23.554 126.657 23.946C126.312 24.3287 126.139 24.8373 126.139 25.472C126.139 26.1067 126.312 26.62 126.657 27.012ZM132.911 29V21.944H134.675V23.008C134.909 22.6533 135.217 22.3687 135.599 22.154C135.991 21.9393 136.43 21.832 136.915 21.832C137.69 21.832 138.311 22.0653 138.777 22.532C139.253 22.9987 139.491 23.6147 139.491 24.38V29H137.727V24.8C137.727 24.38 137.606 24.044 137.363 23.792C137.121 23.5307 136.794 23.4 136.383 23.4C135.842 23.4 135.422 23.6193 135.123 24.058C134.825 24.4967 134.675 25.1127 134.675 25.906V29H132.911ZM147.007 28.09C146.316 28.7713 145.434 29.112 144.361 29.112C143.287 29.112 142.405 28.7713 141.715 28.09C141.024 27.3993 140.679 26.5267 140.679 25.472C140.679 24.4173 141.024 23.5493 141.715 22.868C142.405 22.1773 143.287 21.832 144.361 21.832C145.434 21.832 146.316 22.1773 147.007 22.868C147.697 23.5493 148.043 24.4173 148.043 25.472C148.043 26.5267 147.697 27.3993 147.007 28.09ZM142.975 27.012C143.329 27.3947 143.791 27.586 144.361 27.586C144.93 27.586 145.387 27.39 145.733 26.998C146.087 26.606 146.265 26.0973 146.265 25.472C146.265 24.8467 146.087 24.338 145.733 23.946C145.387 23.554 144.93 23.358 144.361 23.358C143.791 23.358 143.329 23.554 142.975 23.946C142.629 24.3287 142.457 24.8373 142.457 25.472C142.457 26.1067 142.629 26.62 142.975 27.012ZM153.779 23.652C153.527 23.54 153.228 23.484 152.883 23.484C152.342 23.484 151.889 23.7267 151.525 24.212C151.17 24.688 150.993 25.4207 150.993 26.41V29H149.229V21.944H150.993V23.232C151.17 22.8307 151.46 22.4993 151.861 22.238C152.272 21.9673 152.692 21.832 153.121 21.832C153.41 21.832 153.667 21.8693 153.891 21.944L153.779 23.652ZM164.594 29L163.796 26.83H160.002L159.204 29H157.244L161.01 19.2H162.788L166.554 29H164.594ZM160.604 25.22H163.208L161.906 21.692L160.604 25.22ZM170.139 29.112C169.093 29.112 168.272 28.7807 167.675 28.118C167.077 27.446 166.779 26.564 166.779 25.472C166.779 24.38 167.077 23.5027 167.675 22.84C168.272 22.168 169.084 21.832 170.111 21.832C171.016 21.832 171.697 22.1307 172.155 22.728V19.088H173.919V29H172.155V28.188C171.977 28.468 171.707 28.692 171.343 28.86C170.979 29.028 170.577 29.112 170.139 29.112ZM170.391 27.586C170.96 27.586 171.413 27.3947 171.749 27.012C172.094 26.62 172.267 26.1067 172.267 25.472C172.267 24.8373 172.094 24.3287 171.749 23.946C171.413 23.554 170.96 23.358 170.391 23.358C169.831 23.358 169.378 23.554 169.033 23.946C168.697 24.3287 168.529 24.8373 168.529 25.472C168.529 26.1067 168.697 26.62 169.033 27.012C169.378 27.3947 169.831 27.586 170.391 27.586ZM177.327 29L174.751 21.944H176.529L178.139 26.956L179.749 21.944H181.541L178.965 29H177.327ZM184.047 20.558C183.832 20.7633 183.566 20.866 183.249 20.866C182.932 20.866 182.67 20.7633 182.465 20.558C182.26 20.3433 182.157 20.082 182.157 19.774C182.157 19.466 182.26 19.2093 182.465 19.004C182.67 18.7987 182.932 18.696 183.249 18.696C183.566 18.696 183.832 18.8033 184.047 19.018C184.262 19.2233 184.369 19.4753 184.369 19.774C184.369 20.082 184.262 20.3433 184.047 20.558ZM182.367 29V21.944H184.131V29H182.367ZM188.164 29.112C187.37 29.112 186.708 28.9113 186.176 28.51C185.644 28.0993 185.28 27.6047 185.084 27.026L186.526 26.438C186.638 26.8207 186.834 27.1333 187.114 27.376C187.394 27.6187 187.744 27.74 188.164 27.74C188.49 27.74 188.752 27.6653 188.948 27.516C189.153 27.3573 189.256 27.166 189.256 26.942C189.256 26.6993 189.12 26.508 188.85 26.368C188.588 26.228 188.271 26.116 187.898 26.032C187.524 25.9387 187.146 25.8267 186.764 25.696C186.39 25.5653 186.068 25.3413 185.798 25.024C185.536 24.7067 185.406 24.3007 185.406 23.806C185.406 23.2367 185.634 22.7653 186.092 22.392C186.549 22.0187 187.156 21.832 187.912 21.832C188.602 21.832 189.209 21.9907 189.732 22.308C190.264 22.6253 190.604 23.0407 190.754 23.554L189.326 24.156C189.232 23.8387 189.055 23.5913 188.794 23.414C188.532 23.2273 188.248 23.134 187.94 23.134C187.66 23.134 187.431 23.1947 187.254 23.316C187.086 23.428 187.002 23.582 187.002 23.778C187.002 24.002 187.132 24.1747 187.394 24.296C187.664 24.4173 187.986 24.52 188.36 24.604C188.742 24.6787 189.125 24.7813 189.508 24.912C189.89 25.0427 190.212 25.276 190.474 25.612C190.744 25.948 190.88 26.382 190.88 26.914C190.88 27.53 190.628 28.0527 190.124 28.482C189.62 28.902 188.966 29.112 188.164 29.112ZM198.635 25.234C198.635 25.514 198.626 25.7473 198.607 25.934H193.371C193.446 26.466 193.647 26.8813 193.973 27.18C194.3 27.4787 194.715 27.628 195.219 27.628C195.63 27.628 195.975 27.5347 196.255 27.348C196.535 27.1613 196.722 26.8953 196.815 26.55L198.467 26.998C198.271 27.6607 197.884 28.1787 197.305 28.552C196.727 28.9253 196.022 29.112 195.191 29.112C194.081 29.112 193.203 28.7527 192.559 28.034C191.925 27.306 191.607 26.452 191.607 25.472C191.607 24.4827 191.911 23.6287 192.517 22.91C193.133 22.1913 193.992 21.832 195.093 21.832C196.213 21.832 197.081 22.1773 197.697 22.868C198.323 23.5493 198.635 24.338 198.635 25.234ZM193.413 24.646H196.745C196.699 24.2073 196.535 23.8527 196.255 23.582C195.975 23.3113 195.588 23.176 195.093 23.176C194.655 23.176 194.286 23.302 193.987 23.554C193.698 23.806 193.507 24.17 193.413 24.646ZM202.812 29.112C201.766 29.112 200.945 28.7807 200.348 28.118C199.75 27.446 199.452 26.564 199.452 25.472C199.452 24.38 199.75 23.5027 200.348 22.84C200.945 22.168 201.757 21.832 202.784 21.832C203.689 21.832 204.37 22.1307 204.828 22.728V19.088H206.592V29H204.828V28.188C204.65 28.468 204.38 28.692 204.016 28.86C203.652 29.028 203.25 29.112 202.812 29.112ZM203.064 27.586C203.633 27.586 204.086 27.3947 204.422 27.012C204.767 26.62 204.94 26.1067 204.94 25.472C204.94 24.8373 204.767 24.3287 204.422 23.946C204.086 23.554 203.633 23.358 203.064 23.358C202.504 23.358 202.051 23.554 201.706 23.946C201.37 24.3287 201.202 24.8373 201.202 25.472C201.202 26.1067 201.37 26.62 201.706 27.012C202.051 27.3947 202.504 27.586 203.064 27.586ZM211.46 29V19.2H218.096V20.838H213.364V23.106H217.186V24.758H213.364V29H211.46ZM225.281 21.944V29H223.517V27.936C223.284 28.2907 222.971 28.5753 222.579 28.79C222.196 29.0047 221.762 29.112 221.277 29.112C220.512 29.112 219.891 28.8787 219.415 28.412C218.939 27.9453 218.701 27.3293 218.701 26.564V21.944H220.465V26.144C220.465 26.564 220.586 26.9047 220.829 27.166C221.072 27.418 221.398 27.544 221.809 27.544C222.35 27.544 222.77 27.3247 223.069 26.886C223.368 26.4473 223.517 25.8313 223.517 25.038V21.944H225.281ZM226.86 29V21.944H228.624V23.008C228.857 22.6533 229.165 22.3687 229.548 22.154C229.94 21.9393 230.378 21.832 230.864 21.832C231.638 21.832 232.259 22.0653 232.726 22.532C233.202 22.9987 233.44 23.6147 233.44 24.38V29H231.676V24.8C231.676 24.38 231.554 24.044 231.312 23.792C231.069 23.5307 230.742 23.4 230.332 23.4C229.79 23.4 229.37 23.6193 229.072 24.058C228.773 24.4967 228.624 25.1127 228.624 25.906V29H226.86ZM237.987 29.112C236.941 29.112 236.12 28.7807 235.523 28.118C234.925 27.446 234.627 26.564 234.627 25.472C234.627 24.38 234.925 23.5027 235.523 22.84C236.12 22.168 236.932 21.832 237.959 21.832C238.864 21.832 239.545 22.1307 240.003 22.728V19.088H241.767V29H240.003V28.188C239.825 28.468 239.555 28.692 239.191 28.86C238.827 29.028 238.425 29.112 237.987 29.112ZM238.239 27.586C238.808 27.586 239.261 27.3947 239.597 27.012C239.942 26.62 240.115 26.1067 240.115 25.472C240.115 24.8373 239.942 24.3287 239.597 23.946C239.261 23.554 238.808 23.358 238.239 23.358C237.679 23.358 237.226 23.554 236.881 23.946C236.545 24.3287 236.377 24.8373 236.377 25.472C236.377 26.1067 236.545 26.62 236.881 27.012C237.226 27.3947 237.679 27.586 238.239 27.586Z" fill="white"/><rect x="104" y="12" width="1" height="24" fill="white"/></svg>